<svg xmlns="http://www.w3.org/2000/svg" fill="none" viewBox="0 0 97 96">
  <path fill="#435C6E" fill-rule="evenodd" d="M65.7 48.7h11l20 46.8c-32.4.5-63.7.8-96 0l21.2-46.8h9.5A44 44 0 0 1 22 25.5a25 25 0 0 1 7.8-18 27.3 27.3 0 0 1 37.7 0 25 25 0 0 1 7.9 18 44 44 0 0 1-9.6 23.2ZM54.4 62.3c-3.4 3.6-5.8 5.8-5.8 5.8s-7.3-6.6-14.2-15.4H23.8l-7.7 17c7.3.4 13.4 2.7 18.6 5l1.7.7 6 2.4a18 18 0 0 0 6.1 1.2l2.7-7.8a821.8 821.8 0 0 1 3.2-8.9ZM39.1 34.6a13.7 13.7 0 0 0 18.9 0c2.5-2.4 4-5.7 4-9 0-3.4-1.5-6.7-4-9a13.7 13.7 0 0 0-18.9 0 12.3 12.3 0 0 0 .1 18ZM5.4 93s6.8-14.8 7-16c.4-1.1 14.6-1.8 20.8.7a59 59 0 0 0 14.8 3 62.5 62.5 0 0 1-7 12.5H5.4Zm50.2-20.6c-2.4 7-7.2 14.3-11.4 20.6h47l-17-40.3h-8a21.2 21.2 0 0 0-5 6c-1.8 3-3.2 7-4.8 11.5l-.7 2.1v.2Z" clip-rule="evenodd"/>
</svg>
